<mxfile host="app.diagrams.net" agent="Mozilla/5.0 (Windows NT 10.0; Win64; x64) AppleWebKit/537.36 (KHTML, like Gecko) Chrome/134.0.0.0 Safari/537.36" version="26.1.0">
  <diagram username="PÃ¡gina-1" id="abZwQnz1N0Az5m2Itx17">
    <mxGraphModel dx="3497" dy="746" grid="1" gridSize="10" guides="1" tooltips="1" connect="1" arrows="1" fold="1" page="1" pageScale="1" pageWidth="827" pageHeight="1169" math="0" shadow="0">
      <root>
        <mxCell id="0" />
        <mxCell id="1" parent="0" />
        <mxCell id="0PBlV7BTAYtjHm_tiN_W-7" style="edgeStyle=orthogonalEdgeStyle;rounded=0;orthogonalLoop=1;jettySize=auto;html=1;exitX=0.5;exitY=1;exitDx=0;exitDy=0;entryX=0.5;entryY=0;entryDx=0;entryDy=0;endArrow=none;endFill=0;" parent="1" source="gQEX54q6l4UpiiUxfmsm-6" target="fEKvC-BK4tr_WDpha1cf-1" edge="1">
          <mxGeometry relative="1" as="geometry">
            <mxPoint x="-636.5" y="360" as="targetPoint" />
          </mxGeometry>
        </mxCell>
        <mxCell id="gQEX54q6l4UpiiUxfmsm-6" value="Usuario" style="rounded=1;whiteSpace=wrap;html=1;" parent="1" vertex="1">
          <mxGeometry x="-696.5" y="250" width="120" height="60" as="geometry" />
        </mxCell>
        <mxCell id="gQEX54q6l4UpiiUxfmsm-7" style="edgeStyle=orthogonalEdgeStyle;rounded=0;orthogonalLoop=1;jettySize=auto;html=1;exitX=0.5;exitY=1;exitDx=0;exitDy=0;entryX=0.25;entryY=0;entryDx=0;entryDy=0;endArrow=none;endFill=0;" parent="1" source="gQEX54q6l4UpiiUxfmsm-8" target="gQEX54q6l4UpiiUxfmsm-6" edge="1">
          <mxGeometry relative="1" as="geometry" />
        </mxCell>
        <mxCell id="gQEX54q6l4UpiiUxfmsm-8" value="id_usr" style="ellipse;whiteSpace=wrap;html=1;fillColor=#fff2cc;strokeColor=#d6b656;strokeWidth=3;" parent="1" vertex="1">
          <mxGeometry x="-706.5" y="200" width="50" height="20" as="geometry" />
        </mxCell>
        <mxCell id="gQEX54q6l4UpiiUxfmsm-9" style="edgeStyle=orthogonalEdgeStyle;rounded=0;orthogonalLoop=1;jettySize=auto;html=1;exitX=0.5;exitY=1;exitDx=0;exitDy=0;entryX=0.5;entryY=0;entryDx=0;entryDy=0;endArrow=none;endFill=0;" parent="1" source="gQEX54q6l4UpiiUxfmsm-10" target="gQEX54q6l4UpiiUxfmsm-6" edge="1">
          <mxGeometry relative="1" as="geometry">
            <Array as="points">
              <mxPoint x="-581.5" y="190" />
              <mxPoint x="-636.5" y="190" />
            </Array>
          </mxGeometry>
        </mxCell>
        <mxCell id="gQEX54q6l4UpiiUxfmsm-10" value="username" style="ellipse;whiteSpace=wrap;html=1;strokeWidth=1;" parent="1" vertex="1">
          <mxGeometry x="-606.5" y="150" width="50" height="20" as="geometry" />
        </mxCell>
        <mxCell id="gQEX54q6l4UpiiUxfmsm-11" style="edgeStyle=orthogonalEdgeStyle;rounded=0;orthogonalLoop=1;jettySize=auto;html=1;exitX=0.5;exitY=1;exitDx=0;exitDy=0;entryX=0.75;entryY=0;entryDx=0;entryDy=0;endArrow=none;endFill=0;dashed=1;" parent="1" source="gQEX54q6l4UpiiUxfmsm-12" target="gQEX54q6l4UpiiUxfmsm-6" edge="1">
          <mxGeometry relative="1" as="geometry" />
        </mxCell>
        <mxCell id="gQEX54q6l4UpiiUxfmsm-12" value="imgPath" style="ellipse;whiteSpace=wrap;html=1;strokeWidth=1;dashed=1;" parent="1" vertex="1">
          <mxGeometry x="-606.5" y="200" width="50" height="20" as="geometry" />
        </mxCell>
        <mxCell id="gQEX54q6l4UpiiUxfmsm-15" style="edgeStyle=orthogonalEdgeStyle;rounded=0;orthogonalLoop=1;jettySize=auto;html=1;exitX=0.5;exitY=1;exitDx=0;exitDy=0;entryX=0.5;entryY=0;entryDx=0;entryDy=0;endArrow=none;endFill=0;" parent="1" source="gQEX54q6l4UpiiUxfmsm-16" target="gQEX54q6l4UpiiUxfmsm-6" edge="1">
          <mxGeometry relative="1" as="geometry">
            <Array as="points">
              <mxPoint x="-681.5" y="190" />
              <mxPoint x="-636.5" y="190" />
            </Array>
          </mxGeometry>
        </mxCell>
        <mxCell id="gQEX54q6l4UpiiUxfmsm-16" value="email" style="ellipse;whiteSpace=wrap;html=1;strokeWidth=1;" parent="1" vertex="1">
          <mxGeometry x="-706.5" y="150" width="50" height="20" as="geometry" />
        </mxCell>
        <mxCell id="gQEX54q6l4UpiiUxfmsm-17" style="edgeStyle=orthogonalEdgeStyle;rounded=0;orthogonalLoop=1;jettySize=auto;html=1;exitX=0.5;exitY=1;exitDx=0;exitDy=0;entryX=0.5;entryY=0;entryDx=0;entryDy=0;endArrow=none;endFill=0;" parent="1" source="gQEX54q6l4UpiiUxfmsm-18" target="gQEX54q6l4UpiiUxfmsm-6" edge="1">
          <mxGeometry relative="1" as="geometry">
            <Array as="points">
              <mxPoint x="-681" y="90" />
              <mxPoint x="-681" y="130" />
              <mxPoint x="-636" y="130" />
            </Array>
            <mxPoint x="-681.5" y="60.000000000000114" as="sourcePoint" />
          </mxGeometry>
        </mxCell>
        <mxCell id="gQEX54q6l4UpiiUxfmsm-18" value="password" style="ellipse;whiteSpace=wrap;html=1;strokeWidth=1;" parent="1" vertex="1">
          <mxGeometry x="-715" y="70" width="70" height="20" as="geometry" />
        </mxCell>
        <mxCell id="gQEX54q6l4UpiiUxfmsm-21" style="edgeStyle=orthogonalEdgeStyle;rounded=0;orthogonalLoop=1;jettySize=auto;html=1;exitX=0.563;exitY=0.936;exitDx=0;exitDy=0;entryX=0.5;entryY=0;entryDx=0;entryDy=0;endArrow=none;endFill=0;exitPerimeter=0;" parent="1" source="gQEX54q6l4UpiiUxfmsm-22" target="gQEX54q6l4UpiiUxfmsm-6" edge="1">
          <mxGeometry relative="1" as="geometry">
            <Array as="points">
              <mxPoint x="-582" y="130" />
              <mxPoint x="-636" y="130" />
            </Array>
            <mxPoint x="-581.5" y="60.000000000000114" as="sourcePoint" />
          </mxGeometry>
        </mxCell>
        <mxCell id="gQEX54q6l4UpiiUxfmsm-22" value="DateCreate" style="ellipse;whiteSpace=wrap;html=1;strokeWidth=1;" parent="1" vertex="1">
          <mxGeometry x="-632.5" y="70" width="90" height="20" as="geometry" />
        </mxCell>
        <mxCell id="3kQIfu9kNb-oH4Inlywl-9" style="edgeStyle=orthogonalEdgeStyle;rounded=0;orthogonalLoop=1;jettySize=auto;html=1;exitX=1;exitY=0.5;exitDx=0;exitDy=0;entryX=0;entryY=0.5;entryDx=0;entryDy=0;endArrow=none;endFill=0;" parent="1" source="gQEX54q6l4UpiiUxfmsm-51" target="3kQIfu9kNb-oH4Inlywl-7" edge="1">
          <mxGeometry relative="1" as="geometry" />
        </mxCell>
        <mxCell id="gQEX54q6l4UpiiUxfmsm-51" value="Playlist" style="rounded=1;whiteSpace=wrap;html=1;" parent="1" vertex="1">
          <mxGeometry x="-1000" y="432" width="120" height="60" as="geometry" />
        </mxCell>
        <mxCell id="gQEX54q6l4UpiiUxfmsm-98" style="edgeStyle=orthogonalEdgeStyle;rounded=0;orthogonalLoop=1;jettySize=auto;html=1;entryX=0.5;entryY=0;entryDx=0;entryDy=0;endArrow=none;endFill=0;" parent="1" source="gQEX54q6l4UpiiUxfmsm-53" target="gQEX54q6l4UpiiUxfmsm-97" edge="1">
          <mxGeometry relative="1" as="geometry" />
        </mxCell>
        <mxCell id="HJFNkIE9E237Pmig1SJd-1" style="edgeStyle=orthogonalEdgeStyle;rounded=0;orthogonalLoop=1;jettySize=auto;html=1;exitX=1;exitY=0.25;exitDx=0;exitDy=0;entryX=0.5;entryY=1;entryDx=0;entryDy=0;endArrow=none;endFill=0;" parent="1" source="gQEX54q6l4UpiiUxfmsm-53" target="gQEX54q6l4UpiiUxfmsm-82" edge="1">
          <mxGeometry relative="1" as="geometry">
            <Array as="points">
              <mxPoint x="-490" y="447" />
            </Array>
          </mxGeometry>
        </mxCell>
        <mxCell id="gQEX54q6l4UpiiUxfmsm-53" value="Cancion" style="rounded=1;whiteSpace=wrap;html=1;" parent="1" vertex="1">
          <mxGeometry x="-700" y="432" width="120" height="60" as="geometry" />
        </mxCell>
        <mxCell id="0PBlV7BTAYtjHm_tiN_W-31" style="edgeStyle=orthogonalEdgeStyle;rounded=0;orthogonalLoop=1;jettySize=auto;html=1;exitX=1;exitY=0.5;exitDx=0;exitDy=0;endArrow=none;endFill=0;" parent="1" source="gQEX54q6l4UpiiUxfmsm-64" edge="1">
          <mxGeometry relative="1" as="geometry">
            <Array as="points">
              <mxPoint x="-1003.4599999999999" y="427" />
            </Array>
            <mxPoint x="-1003.4599999999999" y="427" as="targetPoint" />
          </mxGeometry>
        </mxCell>
        <mxCell id="gQEX54q6l4UpiiUxfmsm-64" value="id_lista" style="ellipse;whiteSpace=wrap;html=1;fillColor=#fff2cc;strokeColor=#d6b656;strokeWidth=3;" parent="1" vertex="1">
          <mxGeometry x="-1258.46" y="417" width="85" height="20" as="geometry" />
        </mxCell>
        <mxCell id="3kQIfu9kNb-oH4Inlywl-2" style="edgeStyle=orthogonalEdgeStyle;rounded=0;orthogonalLoop=1;jettySize=auto;html=1;exitX=1;exitY=0.5;exitDx=0;exitDy=0;entryX=0;entryY=1;entryDx=0;entryDy=0;endArrow=none;endFill=0;" parent="1" source="gQEX54q6l4UpiiUxfmsm-68" edge="1">
          <mxGeometry relative="1" as="geometry">
            <Array as="points">
              <mxPoint x="-1000.4599999999999" y="492" />
            </Array>
            <mxPoint x="-1000.4599999999997" y="464" as="targetPoint" />
          </mxGeometry>
        </mxCell>
        <mxCell id="gQEX54q6l4UpiiUxfmsm-68" value="imgPath" style="ellipse;whiteSpace=wrap;html=1;strokeWidth=1;" parent="1" vertex="1">
          <mxGeometry x="-1188.46" y="482" width="60" height="20" as="geometry" />
        </mxCell>
        <mxCell id="gQEX54q6l4UpiiUxfmsm-85" style="edgeStyle=orthogonalEdgeStyle;rounded=0;orthogonalLoop=1;jettySize=auto;html=1;exitX=1;exitY=0.5;exitDx=0;exitDy=0;endArrow=none;endFill=0;entryX=0;entryY=0.5;entryDx=0;entryDy=0;" parent="1" source="gQEX54q6l4UpiiUxfmsm-80" edge="1">
          <mxGeometry relative="1" as="geometry">
            <mxPoint x="-1000.4599999999997" y="434" as="targetPoint" />
            <Array as="points">
              <mxPoint x="-1000.4599999999999" y="462" />
            </Array>
          </mxGeometry>
        </mxCell>
        <mxCell id="gQEX54q6l4UpiiUxfmsm-80" value="username" style="ellipse;whiteSpace=wrap;html=1;strokeWidth=1;" parent="1" vertex="1">
          <mxGeometry x="-1233.46" y="452" width="60" height="20" as="geometry" />
        </mxCell>
        <mxCell id="3kQIfu9kNb-oH4Inlywl-3" style="edgeStyle=orthogonalEdgeStyle;rounded=0;orthogonalLoop=1;jettySize=auto;html=1;exitX=1;exitY=0.5;exitDx=0;exitDy=0;entryX=0;entryY=1;entryDx=0;entryDy=0;endArrow=none;endFill=0;" parent="1" source="gQEX54q6l4UpiiUxfmsm-81" edge="1">
          <mxGeometry relative="1" as="geometry">
            <mxPoint x="-1000.4599999999997" y="464" as="targetPoint" />
          </mxGeometry>
        </mxCell>
        <mxCell id="gQEX54q6l4UpiiUxfmsm-81" value="DateCreate" style="ellipse;whiteSpace=wrap;html=1;strokeWidth=1;" parent="1" vertex="1">
          <mxGeometry x="-1128.46" y="502" width="60" height="20" as="geometry" />
        </mxCell>
        <mxCell id="gQEX54q6l4UpiiUxfmsm-82" value="seconds" style="ellipse;whiteSpace=wrap;html=1;strokeWidth=1;" parent="1" vertex="1">
          <mxGeometry x="-520" y="420" width="60" height="20" as="geometry" />
        </mxCell>
        <mxCell id="gQEX54q6l4UpiiUxfmsm-90" value="Genero" style="rounded=1;whiteSpace=wrap;html=1;" parent="1" vertex="1">
          <mxGeometry x="-700.5" y="642" width="120" height="60" as="geometry" />
        </mxCell>
        <mxCell id="gQEX54q6l4UpiiUxfmsm-91" style="edgeStyle=orthogonalEdgeStyle;rounded=0;orthogonalLoop=1;jettySize=auto;html=1;exitX=0.5;exitY=0;exitDx=0;exitDy=0;entryX=0.75;entryY=1;entryDx=0;entryDy=0;endArrow=none;endFill=0;" parent="1" source="gQEX54q6l4UpiiUxfmsm-92" target="gQEX54q6l4UpiiUxfmsm-90" edge="1">
          <mxGeometry relative="1" as="geometry">
            <Array as="points">
              <mxPoint x="-572.5" y="702" />
            </Array>
          </mxGeometry>
        </mxCell>
        <mxCell id="gQEX54q6l4UpiiUxfmsm-92" value="DateCreate" style="ellipse;whiteSpace=wrap;html=1;strokeWidth=1;" parent="1" vertex="1">
          <mxGeometry x="-602.5" y="742" width="60" height="20" as="geometry" />
        </mxCell>
        <mxCell id="gQEX54q6l4UpiiUxfmsm-93" style="edgeStyle=orthogonalEdgeStyle;rounded=0;orthogonalLoop=1;jettySize=auto;html=1;exitX=0.5;exitY=0;exitDx=0;exitDy=0;entryX=0.5;entryY=1;entryDx=0;entryDy=0;endArrow=none;endFill=0;" parent="1" source="gQEX54q6l4UpiiUxfmsm-94" target="gQEX54q6l4UpiiUxfmsm-90" edge="1">
          <mxGeometry relative="1" as="geometry" />
        </mxCell>
        <mxCell id="gQEX54q6l4UpiiUxfmsm-94" value="Nombre" style="ellipse;whiteSpace=wrap;html=1;strokeWidth=1;" parent="1" vertex="1">
          <mxGeometry x="-670.5" y="742" width="60" height="20" as="geometry" />
        </mxCell>
        <mxCell id="gQEX54q6l4UpiiUxfmsm-95" style="edgeStyle=orthogonalEdgeStyle;rounded=0;orthogonalLoop=1;jettySize=auto;html=1;exitX=0.5;exitY=0;exitDx=0;exitDy=0;entryX=0.25;entryY=1;entryDx=0;entryDy=0;endArrow=none;endFill=0;" parent="1" source="gQEX54q6l4UpiiUxfmsm-96" target="gQEX54q6l4UpiiUxfmsm-90" edge="1">
          <mxGeometry relative="1" as="geometry">
            <Array as="points">
              <mxPoint x="-707.5" y="702" />
            </Array>
          </mxGeometry>
        </mxCell>
        <mxCell id="gQEX54q6l4UpiiUxfmsm-96" value="id_genero" style="ellipse;whiteSpace=wrap;html=1;fillColor=#fff2cc;strokeColor=#d6b656;strokeWidth=3;" parent="1" vertex="1">
          <mxGeometry x="-737.5" y="742" width="60" height="20" as="geometry" />
        </mxCell>
        <mxCell id="gQEX54q6l4UpiiUxfmsm-99" style="edgeStyle=orthogonalEdgeStyle;rounded=0;orthogonalLoop=1;jettySize=auto;html=1;exitX=0.5;exitY=1;exitDx=0;exitDy=0;entryX=0.5;entryY=0;entryDx=0;entryDy=0;endArrow=none;endFill=0;" parent="1" source="gQEX54q6l4UpiiUxfmsm-97" target="gQEX54q6l4UpiiUxfmsm-90" edge="1">
          <mxGeometry relative="1" as="geometry" />
        </mxCell>
        <mxCell id="gQEX54q6l4UpiiUxfmsm-97" value="Tiene" style="rhombus;whiteSpace=wrap;html=1;" parent="1" vertex="1">
          <mxGeometry x="-675.5" y="552" width="70" height="50" as="geometry" />
        </mxCell>
        <mxCell id="gQEX54q6l4UpiiUxfmsm-100" value="(1,N)" style="text;html=1;align=center;verticalAlign=middle;whiteSpace=wrap;rounded=0;" parent="1" vertex="1">
          <mxGeometry x="-645" y="612" width="60" height="30" as="geometry" />
        </mxCell>
        <mxCell id="gQEX54q6l4UpiiUxfmsm-101" value="(0,N)" style="text;html=1;align=center;verticalAlign=middle;whiteSpace=wrap;rounded=0;" parent="1" vertex="1">
          <mxGeometry x="-656.5" y="522" width="60" height="20" as="geometry" />
        </mxCell>
        <mxCell id="0PBlV7BTAYtjHm_tiN_W-26" value="(0,N)" style="text;html=1;align=center;verticalAlign=middle;whiteSpace=wrap;rounded=0;" parent="1" vertex="1">
          <mxGeometry x="-636" y="400" width="60" height="30" as="geometry" />
        </mxCell>
        <mxCell id="3kQIfu9kNb-oH4Inlywl-8" style="edgeStyle=orthogonalEdgeStyle;rounded=0;orthogonalLoop=1;jettySize=auto;html=1;exitX=1;exitY=0.5;exitDx=0;exitDy=0;entryX=0;entryY=0.5;entryDx=0;entryDy=0;endArrow=none;endFill=0;" parent="1" source="3kQIfu9kNb-oH4Inlywl-7" target="gQEX54q6l4UpiiUxfmsm-53" edge="1">
          <mxGeometry relative="1" as="geometry" />
        </mxCell>
        <mxCell id="3kQIfu9kNb-oH4Inlywl-7" value="Tiene" style="rhombus;whiteSpace=wrap;html=1;" parent="1" vertex="1">
          <mxGeometry x="-822" y="440" width="65" height="44" as="geometry" />
        </mxCell>
        <mxCell id="3kQIfu9kNb-oH4Inlywl-10" value="(1,N)" style="text;html=1;align=center;verticalAlign=middle;whiteSpace=wrap;rounded=0;" parent="1" vertex="1">
          <mxGeometry x="-752" y="432" width="60" height="30" as="geometry" />
        </mxCell>
        <mxCell id="3kQIfu9kNb-oH4Inlywl-11" value="(0, N)" style="text;html=1;align=center;verticalAlign=middle;whiteSpace=wrap;rounded=0;" parent="1" vertex="1">
          <mxGeometry x="-890" y="432" width="60" height="30" as="geometry" />
        </mxCell>
        <mxCell id="fEKvC-BK4tr_WDpha1cf-2" style="edgeStyle=orthogonalEdgeStyle;rounded=0;orthogonalLoop=1;jettySize=auto;html=1;exitX=0.5;exitY=1;exitDx=0;exitDy=0;entryX=0.527;entryY=0.004;entryDx=0;entryDy=0;endArrow=none;startFill=0;entryPerimeter=0;" parent="1" target="gQEX54q6l4UpiiUxfmsm-53" edge="1">
          <mxGeometry relative="1" as="geometry">
            <mxPoint x="-636.5" y="350" as="sourcePoint" />
            <mxPoint x="-635.9999999999998" y="430" as="targetPoint" />
          </mxGeometry>
        </mxCell>
        <mxCell id="fEKvC-BK4tr_WDpha1cf-1" value="Reproduce" style="rhombus;whiteSpace=wrap;html=1;" parent="1" vertex="1">
          <mxGeometry x="-666.5" y="340" width="60" height="40" as="geometry" />
        </mxCell>
        <mxCell id="fEKvC-BK4tr_WDpha1cf-3" value="(0,N)" style="text;html=1;align=center;verticalAlign=middle;whiteSpace=wrap;rounded=0;" parent="1" vertex="1">
          <mxGeometry x="-636.5" y="310" width="60" height="30" as="geometry" />
        </mxCell>
        <mxCell id="Oi3UFVG6_ky2xyvew6qk-2" value="birthDate" style="ellipse;whiteSpace=wrap;html=1;" parent="1" vertex="1">
          <mxGeometry x="-550" y="60" width="79.5" height="40" as="geometry" />
        </mxCell>
        <mxCell id="Oi3UFVG6_ky2xyvew6qk-3" value="" style="endArrow=none;html=1;rounded=0;entryX=0.5;entryY=1;entryDx=0;entryDy=0;exitX=0.989;exitY=0.408;exitDx=0;exitDy=0;exitPerimeter=0;" parent="1" source="gQEX54q6l4UpiiUxfmsm-6" target="Oi3UFVG6_ky2xyvew6qk-2" edge="1">
          <mxGeometry width="50" height="50" relative="1" as="geometry">
            <mxPoint x="-530" y="200" as="sourcePoint" />
            <mxPoint x="-480" y="150" as="targetPoint" />
            <Array as="points">
              <mxPoint x="-510" y="200" />
            </Array>
          </mxGeometry>
        </mxCell>
        <mxCell id="Oi3UFVG6_ky2xyvew6qk-13" style="edgeStyle=orthogonalEdgeStyle;rounded=0;orthogonalLoop=1;jettySize=auto;html=1;exitX=0;exitY=0.5;exitDx=0;exitDy=0;entryX=1;entryY=1;entryDx=0;entryDy=0;endArrow=none;startFill=0;" parent="1" source="Oi3UFVG6_ky2xyvew6qk-5" target="gQEX54q6l4UpiiUxfmsm-53" edge="1">
          <mxGeometry relative="1" as="geometry">
            <Array as="points">
              <mxPoint x="-580" y="502" />
            </Array>
          </mxGeometry>
        </mxCell>
        <mxCell id="Oi3UFVG6_ky2xyvew6qk-5" value="id_cancion" style="ellipse;whiteSpace=wrap;html=1;fillColor=#fff2cc;strokeColor=#d6b656;strokeWidth=3;" parent="1" vertex="1">
          <mxGeometry x="-532.5" y="492" width="85" height="20" as="geometry" />
        </mxCell>
        <mxCell id="Oi3UFVG6_ky2xyvew6qk-6" value="imgPath" style="ellipse;whiteSpace=wrap;html=1;strokeWidth=1;" parent="1" vertex="1">
          <mxGeometry x="-570" y="390" width="60" height="20" as="geometry" />
        </mxCell>
        <mxCell id="Oi3UFVG6_ky2xyvew6qk-15" style="edgeStyle=orthogonalEdgeStyle;rounded=0;orthogonalLoop=1;jettySize=auto;html=1;exitX=0.5;exitY=0;exitDx=0;exitDy=0;entryX=0.75;entryY=1;entryDx=0;entryDy=0;endArrow=none;startFill=0;" parent="1" source="Oi3UFVG6_ky2xyvew6qk-7" target="gQEX54q6l4UpiiUxfmsm-53" edge="1">
          <mxGeometry relative="1" as="geometry" />
        </mxCell>
        <mxCell id="Oi3UFVG6_ky2xyvew6qk-7" value="Nombre" style="ellipse;whiteSpace=wrap;html=1;strokeWidth=1;" parent="1" vertex="1">
          <mxGeometry x="-585" y="532" width="60" height="20" as="geometry" />
        </mxCell>
        <mxCell id="Oi3UFVG6_ky2xyvew6qk-8" value="DateCreate" style="ellipse;whiteSpace=wrap;html=1;strokeWidth=1;" parent="1" vertex="1">
          <mxGeometry x="-752" y="512" width="60" height="20" as="geometry" />
        </mxCell>
        <mxCell id="Oi3UFVG6_ky2xyvew6qk-14" style="edgeStyle=orthogonalEdgeStyle;rounded=0;orthogonalLoop=1;jettySize=auto;html=1;exitX=0.5;exitY=0;exitDx=0;exitDy=0;entryX=0.223;entryY=0.99;entryDx=0;entryDy=0;entryPerimeter=0;endArrow=none;startFill=0;" parent="1" source="Oi3UFVG6_ky2xyvew6qk-8" target="gQEX54q6l4UpiiUxfmsm-53" edge="1">
          <mxGeometry relative="1" as="geometry" />
        </mxCell>
        <mxCell id="Oi3UFVG6_ky2xyvew6qk-16" style="edgeStyle=orthogonalEdgeStyle;rounded=0;orthogonalLoop=1;jettySize=auto;html=1;exitX=0.5;exitY=1;exitDx=0;exitDy=0;entryX=0.935;entryY=0.008;entryDx=0;entryDy=0;entryPerimeter=0;endArrow=none;startFill=0;" parent="1" source="Oi3UFVG6_ky2xyvew6qk-6" target="gQEX54q6l4UpiiUxfmsm-53" edge="1">
          <mxGeometry relative="1" as="geometry" />
        </mxCell>
        <mxCell id="Oi3UFVG6_ky2xyvew6qk-17" value="imgPath" style="ellipse;whiteSpace=wrap;html=1;strokeWidth=1;" parent="1" vertex="1">
          <mxGeometry x="-537" y="742" width="60" height="20" as="geometry" />
        </mxCell>
        <mxCell id="Oi3UFVG6_ky2xyvew6qk-18" value="" style="endArrow=none;html=1;rounded=0;entryX=0.512;entryY=-0.01;entryDx=0;entryDy=0;entryPerimeter=0;exitX=0.903;exitY=0.993;exitDx=0;exitDy=0;exitPerimeter=0;" parent="1" source="gQEX54q6l4UpiiUxfmsm-90" target="Oi3UFVG6_ky2xyvew6qk-17" edge="1">
          <mxGeometry width="50" height="50" relative="1" as="geometry">
            <mxPoint x="-507" y="700" as="sourcePoint" />
            <mxPoint x="-510" y="740" as="targetPoint" />
            <Array as="points">
              <mxPoint x="-507" y="700" />
            </Array>
          </mxGeometry>
        </mxCell>
      </root>
    </mxGraphModel>
  </diagram>
</mxfile>
